<svg xmlns="http://www.w3.org/2000/svg" version="1.1" xmlns:xlink="http://www.w3.org/1999/xlink" xmlns:svgjs="http://svgjs.com/svgjs" width="1440" height="760" preserveAspectRatio="none" viewBox="0 0 1440 760"><g mask="url(&quot;#SvgjsMask1010&quot;)" fill="none"><rect width="1440" height="760" x="0" y="0" fill="#0e2a47"></rect><path d="M312.393,853.042C396.187,855.545,464.344,790.5,502.909,716.066C538.336,647.69,536.023,565.814,494.965,500.663C456.45,439.547,384.628,414.585,312.393,413.755C238.38,412.904,159.98,432.61,122.401,496.379C84.372,560.911,105.403,639.135,140.619,705.244C178.681,776.697,231.471,850.625,312.393,853.042" fill="rgba(28, 83, 142, 0.4)" class="triangle-float2"></path><path d="M974.905,409.476C994.305,408.819,1010.878,397.801,1021.523,381.569C1033.544,363.238,1043.601,340.303,1032.763,321.249C1021.852,302.066,996.92,298.072,974.905,299.61C955.744,300.949,939.595,312.096,929.538,328.461C918.894,345.781,912.542,367.187,922.475,384.924C932.58,402.97,954.234,410.176,974.905,409.476" fill="rgba(28, 83, 142, 0.4)" class="triangle-float3"></path><path d="M237.658,956.2C294.907,959.365,345.225,920.418,373.297,870.424C400.764,821.508,401.966,762.028,373.994,713.399C345.945,664.635,293.86,632.139,237.658,634.614C184.982,636.934,144.376,677.471,120.648,724.557C99.382,766.76,104.42,814.554,125.727,856.736C149.847,904.486,184.244,953.247,237.658,956.2" fill="rgba(28, 83, 142, 0.4)" class="triangle-float2"></path><path d="M1354.5068123688734 326.56139576926535L1538.6222470958007 161.1005623966864 1334.0229823232476 90.65138587673289z" fill="rgba(28, 83, 142, 0.4)" class="triangle-float2"></path><path d="M665.32,165.861C702.293,168.518,738.797,151.847,758.657,120.548C779.982,86.942,784.37,43.885,764.662,9.306C744.783,-25.574,705.466,-43.432,665.32,-43.223C625.558,-43.016,584.918,-25.538,567.752,10.329C552.114,43.003,573.397,77.932,592.647,108.618C610.211,136.616,632.354,163.492,665.32,165.861" fill="rgba(28, 83, 142, 0.4)" class="triangle-float2"></path><path d="M1158.707553067605 69.80220963372771L1339.131723770833 154.14481224105438 1326.9870363137406-19.532309874900108z" fill="rgba(28, 83, 142, 0.4)" class="triangle-float3"></path></g><defs><mask id="SvgjsMask1010"><rect width="1440" height="760" fill="#ffffff"></rect></mask><style>
            @keyframes float1 {
                0%{transform: translate(0, 0)}
                50%{transform: translate(-10px, 0)}
                100%{transform: translate(0, 0)}
            }

            .triangle-float1 {
                animation: float1 5s infinite;
            }

            @keyframes float2 {
                0%{transform: translate(0, 0)}
                50%{transform: translate(-5px, -5px)}
                100%{transform: translate(0, 0)}
            }

            .triangle-float2 {
                animation: float2 4s infinite;
            }

            @keyframes float3 {
                0%{transform: translate(0, 0)}
                50%{transform: translate(0, -10px)}
                100%{transform: translate(0, 0)}
            }

            .triangle-float3 {
                animation: float3 6s infinite;
            }
        </style></defs></svg>